<svg width="512" height="512" viewBox="0 0 512 512" fill="none" xmlns="http://www.w3.org/2000/svg">
  <!-- Background -->
  <rect width="512" height="512" rx="100" fill="url(#gradient)" />
  
  <!-- Game Controller Icon -->
  <g transform="translate(106, 156) scale(1.5)">
    <path d="M168.3,103.4L149,82.8l1.7-4.8c5.9-16.7,7.5-34.5,4.8-52L152,5.4c-0.6-3.8-4.2-6.3-8-6.3H67.1
      c-3.8,0-7.4,2.5-8,6.3l-3.6,20.6c-2.7,17.4-1.1,35.2,4.8,52l1.7,4.8L32.8,103.4c-3.1,2.9-3.7,7.5-1.5,11.1l31.6,53.1
      c2.2,3.6,6.5,5.1,10.4,3.5l26.8-11.8c16.2-7.1,34-8.5,50.9-4.1l7.3,1.9l7.3-1.9c16.9-4.4,34.7-3,50.9,4.1l26.8,11.8
      c3.8,1.7,8.2,0.2,10.4-3.5l31.6-53.1C172,110.9,171.4,106.3,168.3,103.4z" fill="#ffffff"/>
    
    <!-- Left Joystick -->
    <circle cx="58" cy="72" r="14" fill="#7E22CE" />
    
    <!-- Right Joystick -->
    <circle cx="142" cy="72" r="14" fill="#7E22CE" />
    
    <!-- Buttons -->
    <circle cx="170" cy="50" r="8" fill="#7E22CE" />
    <circle cx="150" cy="30" r="8" fill="#7E22CE" />
    <circle cx="190" cy="30" r="8" fill="#7E22CE" />
    <circle cx="170" cy="10" r="8" fill="#7E22CE" />
    
    <!-- D-pad -->
    <rect x="20" y="30" width="36" height="12" rx="2" fill="#7E22CE" />
    <rect x="32" y="18" width="12" height="36" rx="2" fill="#7E22CE" />
  </g>
  
  <!-- Gradient Definition -->
  <defs>
    <linearGradient id="gradient" x1="0" y1="0" x2="512" y2="512" gradientUnits="userSpaceOnUse">
      <stop offset="0%" stop-color="#7E22CE" />
      <stop offset="100%" stop-color="#2563EB" />
    </linearGradient>
  </defs>
</svg> 