<svg width="1200" height="630" viewBox="0 0 1200 630" fill="none" xmlns="http://www.w3.org/2000/svg">
  <!-- Background gradient -->
  <rect width="1200" height="630" fill="url(#bg-gradient)" />
  
  <!-- Main container -->
  <rect x="100" y="100" width="1000" height="430" rx="16" fill="#FFFFFF" fill-opacity="0.1" stroke="#FFFFFF" stroke-opacity="0.2" stroke-width="2" />
  
  <!-- Game controller icon -->
  <svg x="200" y="160" width="120" height="120" viewBox="0 0 24 24" fill="none" xmlns="http://www.w3.org/2000/svg">
    <path d="M21 6H3C1.89543 6 1 6.89543 1 8V16C1 17.1046 1.89543 18 3 18H21C22.1046 18 23 17.1046 23 16V8C23 6.89543 22.1046 6 21 6Z" stroke="white" stroke-width="2" stroke-linecap="round" stroke-linejoin="round"/>
    <path d="M6 12H10" stroke="white" stroke-width="2" stroke-linecap="round" stroke-linejoin="round"/>
    <path d="M8 10V14" stroke="white" stroke-width="2" stroke-linecap="round" stroke-linejoin="round"/>
    <path d="M17 10L17 10.01" stroke="white" stroke-width="2" stroke-linecap="round" stroke-linejoin="round"/>
    <path d="M15 14L15 14.01" stroke="white" stroke-width="2" stroke-linecap="round" stroke-linejoin="round"/>
  </svg>
  
  <!-- Title -->
  <text x="350" y="210" font-family="sans-serif" font-weight="bold" font-size="64" fill="white">Daily Game Drops</text>
  
  <!-- Subtitle -->
  <text x="350" y="270" font-family="sans-serif" font-weight="normal" font-size="36" fill="white" fill-opacity="0.9">Best Game Deals &amp; Free Games</text>
  
  <!-- Features list -->
  <g fill="white" font-family="sans-serif" font-size="28" font-weight="400">
    <text x="350" y="360">✓ Daily Updated Deals</text>
    <text x="350" y="410">✓ Free Game Alerts</text>
    <text x="350" y="460">✓ Across All Gaming Platforms</text>
  </g>
  
  <!-- URL -->
  <text x="600" y="560" text-anchor="middle" font-family="sans-serif" font-size="28" fill="white">dailygamedrops.com</text>
  
  <!-- Gradient definition -->
  <defs>
    <linearGradient id="bg-gradient" x1="0" y1="0" x2="1200" y2="630" gradientUnits="userSpaceOnUse">
      <stop offset="0%" stop-color="#7E22CE" /> <!-- Purple -->
      <stop offset="100%" stop-color="#3B82F6" /> <!-- Blue -->
    </linearGradient>
  </defs>
</svg> 